# xmcd
#
# Track frame offsets:
#	150
#	17804
#	49604
#	70840
#	98773
#	130122
#	166845
#	184283
#
# Disc length: 2806 seconds
#
# Revision: 1
# Processed by: cddbd v1.5PL3 Copyright (c) Steve Scherf et al.
# Submitted via: audiograbber 1.82.01
#
DISCID=620af408
DTITLE=Eric Clapton - 1983-04-20 - Bremen, Germany  - Disc 1
DYEAR=1900
DGENRE=
TTITLE0=Eric Clapton - Tulsa Time
TTITLE1=Eric Clapton - I Shot The Sheriff
TTITLE2=Eric Clapton - Lay Down Sally
TTITLE3=Eric Clapton - Worried Life Blues
TTITLE4=Eric Clapton - Let It Rain
TTITLE5=Eric Clapton - Double Trouble
TTITLE6=Eric Clapton - Sweet Little Lisa (vocals - A. Lee)
TTITLE7=Eric Clapton - After Midnight
EXTD=
EXTT0=
EXTT1=
EXTT2=
EXTT3=
EXTT4=
EXTT5=
EXTT6=
EXTT7=
PLAYORDER=
